%TF.GenerationSoftware,KiCad,Pcbnew,10.0.5*%
%TF.CreationDate,2026-08-21T22:36:25+12:00*%
%TF.ProjectId,PCB Test,50434220-5465-4737-942e-6b696361645f,rev?*%
%TF.SameCoordinates,Original*%
%TF.FileFunction,Soldermask,Bot*%
%TF.FilePolarity,Negative*%
%FSLAX46Y46*%
G04 Gerber Fmt 4.6, Leading zero omitted, Abs format (unit mm)*
G04 Created by KiCad (PCBNEW 10.0.5) date 2026-08-21 22:36:25*
%MOMM*%
%LPD*%
G01*
G04 APERTURE LIST*
%ADD10C,1.712000*%
%ADD11R,1.800000X1.800000*%
%ADD12C,1.800000*%
%ADD13R,1.700000X1.700000*%
%ADD14C,1.700000*%
%ADD15C,1.600000*%
%ADD16C,2.200000*%
%ADD17R,1.500000X1.050000*%
%ADD18O,1.500000X1.050000*%
G04 APERTURE END LIST*
D10*
%TO.C,S4*%
X181750000Y-129250000D03*
X177250000Y-129250000D03*
X181750000Y-135750000D03*
X177250000Y-135750000D03*
%TD*%
%TO.C,S2*%
X170750000Y-94750000D03*
X170750000Y-99250000D03*
X177250000Y-94750000D03*
X177250000Y-99250000D03*
%TD*%
D11*
%TO.C,D8*%
X164500000Y-93960000D03*
D12*
X164500000Y-96500000D03*
%TD*%
D13*
%TO.C,J3*%
X136960000Y-103040000D03*
D14*
X136960000Y-100500000D03*
X139500000Y-103040000D03*
X139500000Y-100500000D03*
%TD*%
D11*
%TO.C,D10*%
X151500000Y-94000000D03*
D12*
X151500000Y-96540000D03*
%TD*%
D11*
%TO.C,D11*%
X137200000Y-139025000D03*
D12*
X137200000Y-136485000D03*
%TD*%
D13*
%TO.C,J6*%
X178500000Y-119000000D03*
D14*
X181040000Y-119000000D03*
X178500000Y-121540000D03*
X181040000Y-121540000D03*
X178500000Y-124080000D03*
X181040000Y-124080000D03*
%TD*%
D15*
%TO.C,C4*%
X143500000Y-135800000D03*
X146000000Y-135800000D03*
%TD*%
D13*
%TO.C,J1*%
X161040000Y-143500000D03*
D14*
X158500000Y-143500000D03*
X161040000Y-140960000D03*
X158500000Y-140960000D03*
%TD*%
D16*
%TO.C,H2*%
X181400000Y-91400000D03*
%TD*%
D15*
%TO.C,C7*%
X145500000Y-128250000D03*
X143000000Y-128250000D03*
%TD*%
D13*
%TO.C,J4*%
X136960000Y-111540000D03*
D14*
X136960000Y-109000000D03*
X139500000Y-111540000D03*
X139500000Y-109000000D03*
%TD*%
D15*
%TO.C,C2*%
X156107500Y-152500000D03*
X156107500Y-150000000D03*
%TD*%
D13*
%TO.C,J2*%
X178725000Y-104960000D03*
D14*
X181265000Y-104960000D03*
X178725000Y-107500000D03*
X181265000Y-107500000D03*
X178725000Y-110040000D03*
X181265000Y-110040000D03*
X178725000Y-112580000D03*
X181265000Y-112580000D03*
X178725000Y-115120000D03*
X181265000Y-115120000D03*
%TD*%
D15*
%TO.C,C1*%
X164107500Y-152500000D03*
X164107500Y-150000000D03*
%TD*%
D16*
%TO.C,H1*%
X135600000Y-91600000D03*
%TD*%
%TO.C,H3*%
X181600000Y-153000000D03*
%TD*%
%TO.C,H4*%
X135600000Y-153000000D03*
%TD*%
D11*
%TO.C,D9*%
X158000000Y-93960000D03*
D12*
X158000000Y-96500000D03*
%TD*%
D17*
%TO.C,U5*%
X150500000Y-131770000D03*
D18*
X150500000Y-130500000D03*
X150500000Y-129230000D03*
%TD*%
D13*
%TO.C,J5*%
X136500000Y-120040000D03*
D14*
X136500000Y-117500000D03*
X139040000Y-120040000D03*
X139040000Y-117500000D03*
%TD*%
M02*
