%TF.GenerationSoftware,KiCad,Pcbnew,10.0.5*%
%TF.CreationDate,2026-08-21T22:36:25+12:00*%
%TF.ProjectId,PCB Test,50434220-5465-4737-942e-6b696361645f,rev?*%
%TF.SameCoordinates,Original*%
%TF.FileFunction,Copper,L1,Top*%
%TF.FilePolarity,Positive*%
%FSLAX46Y46*%
G04 Gerber Fmt 4.6, Leading zero omitted, Abs format (unit mm)*
G04 Created by KiCad (PCBNEW 10.0.5) date 2026-08-21 22:36:25*
%MOMM*%
%LPD*%
G01*
G04 APERTURE LIST*
G04 Aperture macros list*
%AMRoundRect*
0 Rectangle with rounded corners*
0 $1 Rounding radius*
0 $2 $3 $4 $5 $6 $7 $8 $9 X,Y pos of 4 corners*
0 Add a 4 corners polygon primitive as box body*
4,1,4,$2,$3,$4,$5,$6,$7,$8,$9,$2,$3,0*
0 Add four circle primitives for the rounded corners*
1,1,$1+$1,$2,$3*
1,1,$1+$1,$4,$5*
1,1,$1+$1,$6,$7*
1,1,$1+$1,$8,$9*
0 Add four rect primitives between the rounded corners*
20,1,$1+$1,$2,$3,$4,$5,0*
20,1,$1+$1,$4,$5,$6,$7,0*
20,1,$1+$1,$6,$7,$8,$9,0*
20,1,$1+$1,$8,$9,$2,$3,0*%
G04 Aperture macros list end*
%TA.AperFunction,SMDPad,CuDef*%
%ADD10RoundRect,0.250000X0.350000X0.450000X-0.350000X0.450000X-0.350000X-0.450000X0.350000X-0.450000X0*%
%TD*%
%TA.AperFunction,ComponentPad*%
%ADD11C,1.508000*%
%TD*%
%TA.AperFunction,SMDPad,CuDef*%
%ADD12RoundRect,0.250000X0.650000X-1.000000X0.650000X1.000000X-0.650000X1.000000X-0.650000X-1.000000X0*%
%TD*%
%TA.AperFunction,SMDPad,CuDef*%
%ADD13RoundRect,0.137500X-0.137500X0.600000X-0.137500X-0.600000X0.137500X-0.600000X0.137500X0.600000X0*%
%TD*%
%TA.AperFunction,SMDPad,CuDef*%
%ADD14RoundRect,0.137500X-0.600000X0.137500X-0.600000X-0.137500X0.600000X-0.137500X0.600000X0.137500X0*%
%TD*%
%TA.AperFunction,SMDPad,CuDef*%
%ADD15RoundRect,0.250000X-0.475000X0.337500X-0.475000X-0.337500X0.475000X-0.337500X0.475000X0.337500X0*%
%TD*%
%TA.AperFunction,ComponentPad*%
%ADD16R,1.800000X1.800000*%
%TD*%
%TA.AperFunction,ComponentPad*%
%ADD17C,1.800000*%
%TD*%
%TA.AperFunction,ComponentPad*%
%ADD18R,1.700000X1.700000*%
%TD*%
%TA.AperFunction,ComponentPad*%
%ADD19C,1.700000*%
%TD*%
%TA.AperFunction,SMDPad,CuDef*%
%ADD20R,1.950000X0.500000*%
%TD*%
%TA.AperFunction,SMDPad,CuDef*%
%ADD21RoundRect,0.250000X-0.350000X-0.450000X0.350000X-0.450000X0.350000X0.450000X-0.350000X0.450000X0*%
%TD*%
%TA.AperFunction,ComponentPad*%
%ADD22C,1.600000*%
%TD*%
%TA.AperFunction,SMDPad,CuDef*%
%ADD23RoundRect,0.250000X-0.450000X0.350000X-0.450000X-0.350000X0.450000X-0.350000X0.450000X0.350000X0*%
%TD*%
%TA.AperFunction,SMDPad,CuDef*%
%ADD24RoundRect,0.150000X0.587500X0.150000X-0.587500X0.150000X-0.587500X-0.150000X0.587500X-0.150000X0*%
%TD*%
%TA.AperFunction,SMDPad,CuDef*%
%ADD25RoundRect,0.250000X0.450000X-0.350000X0.450000X0.350000X-0.450000X0.350000X-0.450000X-0.350000X0*%
%TD*%
%TA.AperFunction,SMDPad,CuDef*%
%ADD26RoundRect,0.250000X0.475000X-0.337500X0.475000X0.337500X-0.475000X0.337500X-0.475000X-0.337500X0*%
%TD*%
%TA.AperFunction,ComponentPad*%
%ADD27R,1.500000X1.050000*%
%TD*%
%TA.AperFunction,ComponentPad*%
%ADD28O,1.500000X1.050000*%
%TD*%
%TA.AperFunction,ViaPad*%
%ADD29C,0.600000*%
%TD*%
%TA.AperFunction,Conductor*%
%ADD30C,0.200000*%
%TD*%
%TA.AperFunction,Conductor*%
%ADD31C,0.500000*%
%TD*%
%TA.AperFunction,Conductor*%
%ADD32C,0.300000*%
%TD*%
G04 APERTURE END LIST*
D10*
%TO.P,R23,1*%
%TO.N,Net-(R23-Pad1)*%
X177125000Y-92525000D03*
%TO.P,R23,2*%
%TO.N,GND*%
X175125000Y-92525000D03*
%TD*%
D11*
%TO.P,S4,1_1*%
%TO.N,GND*%
X181750000Y-129250000D03*
%TO.P,S4,2_1*%
%TO.N,RESET*%
X177250000Y-129250000D03*
%TO.P,S4,1_2*%
%TO.N,GND*%
X181750000Y-135750000D03*
%TO.P,S4,2_2*%
%TO.N,RESET*%
X177250000Y-135750000D03*
%TD*%
%TO.P,S2,1_1*%
%TO.N,Net-(R21-Pad1)*%
X170750000Y-94750000D03*
%TO.P,S2,2_1*%
%TO.N,Button 1*%
X170750000Y-99250000D03*
%TO.P,S2,1_2*%
%TO.N,Net-(R23-Pad1)*%
X177250000Y-94750000D03*
%TO.P,S2,2_2*%
%TO.N,Button 1*%
X177250000Y-99250000D03*
%TD*%
D10*
%TO.P,R16,1*%
%TO.N,+3.3V*%
X139000000Y-123000000D03*
%TO.P,R16,2*%
%TO.N,Net-(J5-Pin_1)*%
X137000000Y-123000000D03*
%TD*%
%TO.P,R10,1*%
%TO.N,Motor 2*%
X165607500Y-129300000D03*
%TO.P,R10,2*%
%TO.N,Net-(Q2-G)*%
X163607500Y-129300000D03*
%TD*%
D12*
%TO.P,D1,1,K_1*%
%TO.N,+4.8V*%
X170607500Y-145300000D03*
%TO.P,D1,2,A_2*%
%TO.N,Net-(D1-A)*%
X170607500Y-141300000D03*
%TD*%
D13*
%TO.P,U1,1,PA3_1*%
%TO.N,Motor 1*%
X158850000Y-114250000D03*
%TO.P,U1,2,PA4_2*%
%TO.N,Motor 2*%
X158050000Y-114250000D03*
%TO.P,U1,3,PA5_3*%
%TO.N,Button 1*%
X157250000Y-114250000D03*
%TO.P,U1,4,PA6_4*%
%TO.N,unconnected-(U1-PA6-Pad4)*%
X156450000Y-114250000D03*
%TO.P,U1,5,PA7_5*%
%TO.N,unconnected-(U1-PA7-Pad5)*%
X155650000Y-114250000D03*
%TO.P,U1,6,PC0_6*%
%TO.N,LED Red*%
X154850000Y-114250000D03*
%TO.P,U1,7,PC1_7*%
%TO.N,LED Green 1*%
X154050000Y-114250000D03*
%TO.P,U1,8,PC2_8*%
%TO.N,LED Green 2*%
X153250000Y-114250000D03*
D14*
%TO.P,U1,9,PC3_9*%
%TO.N,unconnected-(U1-PC3-Pad9)*%
X151887500Y-115612500D03*
%TO.P,U1,10,PD0_10*%
%TO.N,ADC Sensor 3*%
X151887500Y-116412500D03*
%TO.P,U1,11,PD1_11*%
%TO.N,ADC Sensor 2*%
X151887500Y-117212500D03*
%TO.P,U1,12,PD2_12*%
%TO.N,ADC Sensor 1*%
X151887500Y-118012500D03*
%TO.P,U1,13,PD3_13*%
%TO.N,unconnected-(U1-PD3-Pad13)*%
X151887500Y-118812500D03*
%TO.P,U1,14,PD4_14*%
%TO.N,unconnected-(U1-PD4-Pad14)*%
X151887500Y-119612500D03*
%TO.P,U1,15,PD5_15*%
%TO.N,unconnected-(U1-PD5-Pad15)*%
X151887500Y-120412500D03*
%TO.P,U1,16,PD6_16*%
%TO.N,unconnected-(U1-PD6-Pad16)*%
X151887500Y-121212500D03*
D13*
%TO.P,U1,17,PD7_17*%
%TO.N,unconnected-(U1-PD7-Pad17)*%
X153250000Y-122575000D03*
%TO.P,U1,18,AVDD_18*%
%TO.N,+3.3V*%
X154050000Y-122575000D03*
%TO.P,U1,19,GND_19*%
%TO.N,GND*%
X154850000Y-122575000D03*
%TO.P,U1,20,PF0/TOSC1_20*%
%TO.N,unconnected-(U1-PF0{slash}TOSC1-Pad20)*%
X155650000Y-122575000D03*
%TO.P,U1,21,PF1/TOSC2_21*%
%TO.N,unconnected-(U1-PF1{slash}TOSC2-Pad21)*%
X156450000Y-122575000D03*
%TO.P,U1,22,PF2_22*%
%TO.N,unconnected-(U1-PF2-Pad22)*%
X157250000Y-122575000D03*
%TO.P,U1,23,PF3_23*%
%TO.N,unconnected-(U1-PF3-Pad23)*%
X158050000Y-122575000D03*
%TO.P,U1,24,PF4_24*%
%TO.N,unconnected-(U1-PF4-Pad24)*%
X158850000Y-122575000D03*
D14*
%TO.P,U1,25,PF5_25*%
%TO.N,unconnected-(U1-PF5-Pad25)*%
X160212500Y-121212500D03*
%TO.P,U1,26,PF6/~{RESET}_26*%
%TO.N,RESET*%
X160212500Y-120412500D03*
%TO.P,U1,27,UPDI_27*%
%TO.N,UPDI Data*%
X160212500Y-119612500D03*
%TO.P,U1,28,VDD_28*%
%TO.N,+3.3V*%
X160212500Y-118812500D03*
%TO.P,U1,29,GND_29*%
%TO.N,GND*%
X160212500Y-118012500D03*
%TO.P,U1,30,EXTCLK/PA0_30*%
%TO.N,USART TX*%
X160212500Y-117212500D03*
%TO.P,U1,31,PA1_31*%
%TO.N,USART RX*%
X160212500Y-116412500D03*
%TO.P,U1,32,PA2_32*%
%TO.N,unconnected-(U1-PA2-Pad32)*%
X160212500Y-115612500D03*
%TD*%
D15*
%TO.P,C8,1*%
%TO.N,GND*%
X163600000Y-115000000D03*
%TO.P,C8,2*%
%TO.N,+3.3V*%
X163600000Y-117075000D03*
%TD*%
D16*
%TO.P,D8,1,K_1*%
%TO.N,GND*%
X164500000Y-93960000D03*
D17*
%TO.P,D8,2,A_2*%
%TO.N,Net-(D8-A)*%
X164500000Y-96500000D03*
%TD*%
D18*
%TO.P,J3,1,Pin_1_1*%
%TO.N,Net-(J3-Pin_1)*%
X136960000Y-103040000D03*
D19*
%TO.P,J3,2,Pin_2_2*%
%TO.N,GND*%
X136960000Y-100500000D03*
%TO.P,J3,3,Pin_3_3*%
%TO.N,ADC Sensor 3*%
X139500000Y-103040000D03*
%TO.P,J3,4,Pin_4_4*%
%TO.N,+3.3V*%
X139500000Y-100500000D03*
%TD*%
D10*
%TO.P,R1,1*%
%TO.N,RESET*%
X167600000Y-119240000D03*
%TO.P,R1,2*%
%TO.N,+3.3V*%
X165600000Y-119240000D03*
%TD*%
%TO.P,R14,1*%
%TO.N,+3.3V*%
X139000000Y-114500000D03*
%TO.P,R14,2*%
%TO.N,Net-(J4-Pin_1)*%
X137000000Y-114500000D03*
%TD*%
D16*
%TO.P,D10,1,K_1*%
%TO.N,GND*%
X151500000Y-94000000D03*
D17*
%TO.P,D10,2,A_2*%
%TO.N,Net-(D10-A)*%
X151500000Y-96540000D03*
%TD*%
D20*
%TO.P,BT1,1,+_1*%
%TO.N,+4.8V*%
X136700000Y-128250000D03*
%TO.P,BT1,2,-_2*%
%TO.N,GND*%
X134750000Y-127250000D03*
%TD*%
D21*
%TO.P,R17,1*%
%TO.N,ADC Sensor 1*%
X146600000Y-120000000D03*
%TO.P,R17,2*%
%TO.N,GND*%
X148600000Y-120000000D03*
%TD*%
D16*
%TO.P,D11,1,K_1*%
%TO.N,GND*%
X137200000Y-139025000D03*
D17*
%TO.P,D11,2,A_2*%
%TO.N,Net-(D11-A)*%
X137200000Y-136485000D03*
%TD*%
D18*
%TO.P,J6,1,Pin_1_1*%
%TO.N,UPDI Data*%
X178500000Y-119000000D03*
D19*
%TO.P,J6,2,Pin_2_2*%
%TO.N,+3.3V*%
X181040000Y-119000000D03*
%TO.P,J6,3,Pin_3_3*%
%TO.N,unconnected-(J6-Pin_3-Pad3)*%
X178500000Y-121540000D03*
%TO.P,J6,4,Pin_4_4*%
%TO.N,unconnected-(J6-Pin_4-Pad4)*%
X181040000Y-121540000D03*
%TO.P,J6,5,Pin_5_5*%
%TO.N,RESET*%
X178500000Y-124080000D03*
%TO.P,J6,6,Pin_6_6*%
%TO.N,GND*%
X181040000Y-124080000D03*
%TD*%
D22*
%TO.P,C4,1*%
%TO.N,+4.8V*%
X143500000Y-135800000D03*
%TO.P,C4,2*%
%TO.N,GND*%
X146000000Y-135800000D03*
%TD*%
D18*
%TO.P,J1,1,Pin_1_1*%
%TO.N,+4.8V*%
X161040000Y-143500000D03*
D19*
%TO.P,J1,2,Pin_2_2*%
X158500000Y-143500000D03*
%TO.P,J1,3,Pin_3_3*%
%TO.N,Net-(D1-A)*%
X161040000Y-140960000D03*
%TO.P,J1,4,Pin_4_4*%
%TO.N,Net-(D2-A)*%
X158500000Y-140960000D03*
%TD*%
D23*
%TO.P,R7,1*%
%TO.N,Net-(D8-A)*%
X162250000Y-99500000D03*
%TO.P,R7,2*%
%TO.N,LED Red*%
X162250000Y-101500000D03*
%TD*%
D21*
%TO.P,R13,1*%
%TO.N,Net-(Q3-G)*%
X157607500Y-132300000D03*
%TO.P,R13,2*%
%TO.N,GND*%
X159607500Y-132300000D03*
%TD*%
D22*
%TO.P,C7,1*%
%TO.N,+3.3V*%
X145500000Y-128250000D03*
%TO.P,C7,2*%
%TO.N,GND*%
X143000000Y-128250000D03*
%TD*%
D18*
%TO.P,J4,1,Pin_1_1*%
%TO.N,Net-(J4-Pin_1)*%
X136960000Y-111540000D03*
D19*
%TO.P,J4,2,Pin_2_2*%
%TO.N,GND*%
X136960000Y-109000000D03*
%TO.P,J4,3,Pin_3_3*%
%TO.N,ADC Sensor 2*%
X139500000Y-111540000D03*
%TO.P,J4,4,Pin_4_4*%
%TO.N,+3.3V*%
X139500000Y-109000000D03*
%TD*%
D22*
%TO.P,C2,1*%
%TO.N,GND*%
X156107500Y-152500000D03*
%TO.P,C2,2*%
%TO.N,+4.8V*%
X156107500Y-150000000D03*
%TD*%
D24*
%TO.P,Q2,1,D_1*%
%TO.N,Net-(D1-A)*%
X164482500Y-134250000D03*
%TO.P,Q2,2,G_2*%
%TO.N,Net-(Q2-G)*%
X164482500Y-132350000D03*
%TO.P,Q2,3,S_3*%
%TO.N,GND*%
X162607500Y-133300000D03*
%TD*%
D15*
%TO.P,C9,1*%
%TO.N,+3.3V*%
X153712500Y-124912500D03*
%TO.P,C9,2*%
%TO.N,GND*%
X153712500Y-126987500D03*
%TD*%
D23*
%TO.P,R19,1*%
%TO.N,Net-(D10-A)*%
X151250000Y-99500000D03*
%TO.P,R19,2*%
%TO.N,LED Green 2*%
X151250000Y-101500000D03*
%TD*%
D25*
%TO.P,R15,1*%
%TO.N,ADC Sensor 2*%
X146400000Y-110800000D03*
%TO.P,R15,2*%
%TO.N,GND*%
X146400000Y-108800000D03*
%TD*%
D26*
%TO.P,C5,1*%
%TO.N,+4.8V*%
X173607500Y-145837500D03*
%TO.P,C5,2*%
%TO.N,Net-(D1-A)*%
X173607500Y-143762500D03*
%TD*%
D12*
%TO.P,D2,1,K_1*%
%TO.N,+4.8V*%
X148607500Y-145800000D03*
%TO.P,D2,2,A_2*%
%TO.N,Net-(D2-A)*%
X148607500Y-141800000D03*
%TD*%
D23*
%TO.P,R18,1*%
%TO.N,Net-(D9-A)*%
X157000000Y-99500000D03*
%TO.P,R18,2*%
%TO.N,LED Green 1*%
X157000000Y-101500000D03*
%TD*%
D18*
%TO.P,J2,1,Pin_1_1*%
%TO.N,USART RX*%
X178725000Y-104960000D03*
D19*
%TO.P,J2,2,Pin_2_2*%
%TO.N,unconnected-(J2-Pin_2-Pad2)*%
X181265000Y-104960000D03*
%TO.P,J2,3,Pin_3_3*%
%TO.N,USART TX*%
X178725000Y-107500000D03*
%TO.P,J2,4,Pin_4_4*%
%TO.N,DTR*%
X181265000Y-107500000D03*
%TO.P,J2,5,Pin_5_5*%
%TO.N,GND*%
X178725000Y-110040000D03*
%TO.P,J2,6,Pin_6_6*%
X181265000Y-110040000D03*
%TO.P,J2,7,Pin_7_7*%
%TO.N,+3.3V*%
X178725000Y-112580000D03*
%TO.P,J2,8,Pin_8_8*%
%TO.N,unconnected-(J2-Pin_8-Pad8)*%
X181265000Y-112580000D03*
%TO.P,J2,9,Pin_9_9*%
%TO.N,+3.3V*%
X178725000Y-115120000D03*
%TO.P,J2,10,Pin_10_10*%
%TO.N,unconnected-(J2-Pin_10-Pad10)*%
X181265000Y-115120000D03*
%TD*%
D22*
%TO.P,C1,1*%
%TO.N,GND*%
X164107500Y-152500000D03*
%TO.P,C1,2*%
%TO.N,+4.8V*%
X164107500Y-150000000D03*
%TD*%
D26*
%TO.P,C3,1*%
%TO.N,DTR*%
X165200000Y-125075000D03*
%TO.P,C3,2*%
%TO.N,RESET*%
X165200000Y-123000000D03*
%TD*%
D21*
%TO.P,R11,1*%
%TO.N,Net-(Q2-G)*%
X166607500Y-131800000D03*
%TO.P,R11,2*%
%TO.N,GND*%
X168607500Y-131800000D03*
%TD*%
%TO.P,R20,1*%
%TO.N,Net-(D11-A)*%
X135200000Y-133250000D03*
%TO.P,R20,2*%
%TO.N,+4.8V*%
X137200000Y-133250000D03*
%TD*%
%TO.P,R9,1*%
%TO.N,ADC Sensor 3*%
X146250000Y-101000000D03*
%TO.P,R9,2*%
%TO.N,GND*%
X148250000Y-101000000D03*
%TD*%
D10*
%TO.P,R8,1*%
%TO.N,+3.3V*%
X139500000Y-106000000D03*
%TO.P,R8,2*%
%TO.N,Net-(J3-Pin_1)*%
X137500000Y-106000000D03*
%TD*%
D26*
%TO.P,C6,1*%
%TO.N,+4.8V*%
X145690841Y-146490451D03*
%TO.P,C6,2*%
%TO.N,Net-(D2-A)*%
X145690841Y-144415451D03*
%TD*%
D10*
%TO.P,R12,1*%
%TO.N,Motor 1*%
X164607500Y-127300000D03*
%TO.P,R12,2*%
%TO.N,Net-(Q3-G)*%
X162607500Y-127300000D03*
%TD*%
D16*
%TO.P,D9,1,K_1*%
%TO.N,GND*%
X158000000Y-93960000D03*
D17*
%TO.P,D9,2,A_2*%
%TO.N,Net-(D9-A)*%
X158000000Y-96500000D03*
%TD*%
D27*
%TO.P,U5,1,GND_1*%
%TO.N,GND*%
X150500000Y-131770000D03*
D28*
%TO.P,U5,2,VI_2*%
%TO.N,+4.8V*%
X150500000Y-130500000D03*
%TO.P,U5,3,VO_3*%
%TO.N,+3.3V*%
X150500000Y-129230000D03*
%TD*%
D24*
%TO.P,Q3,1,D_1*%
%TO.N,Net-(D2-A)*%
X155595000Y-134100000D03*
%TO.P,Q3,2,G_2*%
%TO.N,Net-(Q3-G)*%
X155595000Y-132200000D03*
%TO.P,Q3,3,S_3*%
%TO.N,GND*%
X153720000Y-133150000D03*
%TD*%
D18*
%TO.P,J5,1,Pin_1_1*%
%TO.N,Net-(J5-Pin_1)*%
X136500000Y-120040000D03*
D19*
%TO.P,J5,2,Pin_2_2*%
%TO.N,GND*%
X136500000Y-117500000D03*
%TO.P,J5,3,Pin_3_3*%
%TO.N,ADC Sensor 1*%
X139040000Y-120040000D03*
%TO.P,J5,4,Pin_4_4*%
%TO.N,+3.3V*%
X139040000Y-117500000D03*
%TD*%
D21*
%TO.P,R21,1*%
%TO.N,Net-(R21-Pad1)*%
X170500000Y-92500000D03*
%TO.P,R21,2*%
%TO.N,GND*%
X172500000Y-92500000D03*
%TD*%
D29*
%TO.N,GND*%
X174500000Y-91500000D03*
X173500000Y-91500000D03*
%TO.N,+3.3V*%
X141000000Y-114500000D03*
X141000000Y-106000000D03*
X141000000Y-122500000D03*
X165509620Y-118050000D03*
X165500000Y-116500000D03*
%TO.N,Motor 2*%
X158000000Y-118000000D03*
X167000000Y-129500000D03*
%TO.N,Motor 1*%
X166000000Y-127500000D03*
X158800003Y-118000000D03*
%TO.N,GND*%
X154500000Y-127000000D03*
X154972881Y-123514874D03*
X149500000Y-120000000D03*
X161545456Y-117536283D03*
X170250214Y-131801725D03*
X134000000Y-125500000D03*
X161607500Y-132300000D03*
X164500000Y-114500000D03*
X153000000Y-133500000D03*
X146287619Y-107640213D03*
X147500000Y-99250000D03*
%TO.N,DTR*%
X167500000Y-115087500D03*
X166375000Y-125875000D03*
%TD*%
%TO.N,RESET*%
D30*
X177335000Y-122915000D02*
X177250000Y-123000000D01*
X177250000Y-123000000D02*
X177250000Y-135750000D01*
%TO.N,GND*%
X175125000Y-92125000D02*
X174500000Y-91500000D01*
X175125000Y-92525000D02*
X175125000Y-92125000D01*
X172500000Y-92500000D02*
X173500000Y-91500000D01*
%TO.N,Net-(R23-Pad1)*%
X177125000Y-92525000D02*
X177125000Y-94625000D01*
X177125000Y-94625000D02*
X177250000Y-94750000D01*
%TO.N,Net-(R21-Pad1)*%
X170500000Y-92500000D02*
X170500000Y-94500000D01*
X170500000Y-94500000D02*
X170750000Y-94750000D01*
%TO.N,RESET*%
X178500000Y-124080000D02*
X177335000Y-122915000D01*
%TO.N,Button 1*%
X167750000Y-102250000D02*
X170750000Y-99250000D01*
X167750000Y-102250000D02*
X174250000Y-102250000D01*
X174250000Y-102250000D02*
X177250000Y-99250000D01*
X157250000Y-114250000D02*
X157250000Y-112750000D01*
X157250000Y-112750000D02*
X167750000Y-102250000D01*
%TO.N,+3.3V*%
D31*
X175467500Y-115837500D02*
X176185000Y-115120000D01*
X145500000Y-128250000D02*
X149520000Y-128250000D01*
D32*
X167040000Y-117800000D02*
X165600000Y-119240000D01*
D31*
X164837500Y-115837500D02*
X175467500Y-115837500D01*
X154050000Y-122575000D02*
X154050000Y-124575000D01*
X163600000Y-117075000D02*
X164837500Y-115837500D01*
X145500000Y-128250000D02*
X141125000Y-123875000D01*
X154050000Y-124575000D02*
X153712500Y-124912500D01*
D32*
X168800000Y-117800000D02*
X167040000Y-117800000D01*
D31*
X141125000Y-123875000D02*
X140250000Y-123000000D01*
X150135000Y-128490000D02*
X153712500Y-124912500D01*
X141125000Y-123875000D02*
X141000000Y-123750000D01*
X154125000Y-123422162D02*
X154125000Y-121727838D01*
D32*
X174056396Y-119000000D02*
X170000000Y-119000000D01*
X181040000Y-119000000D02*
X179700000Y-120340000D01*
D31*
X157040338Y-118812500D02*
X160212500Y-118812500D01*
X161862500Y-118812500D02*
X163600000Y-117075000D01*
X154125000Y-121727838D02*
X157040338Y-118812500D01*
X141000000Y-123750000D02*
X141000000Y-122500000D01*
X150500000Y-129230000D02*
X150135000Y-128865000D01*
X165509620Y-118050000D02*
X165509620Y-119149620D01*
D32*
X170000000Y-119000000D02*
X168800000Y-117800000D01*
X175396396Y-120340000D02*
X174056396Y-119000000D01*
D31*
X175467500Y-115837500D02*
X178725000Y-112580000D01*
D30*
X141000000Y-114500000D02*
X139000000Y-114500000D01*
D31*
X164837500Y-115837500D02*
X165500000Y-116500000D01*
X141000000Y-106000000D02*
X139500000Y-106000000D01*
X160212500Y-118812500D02*
X161862500Y-118812500D01*
X150135000Y-128865000D02*
X150135000Y-128490000D01*
D32*
X179700000Y-120340000D02*
X175396396Y-120340000D01*
D31*
X140250000Y-123000000D02*
X139000000Y-123000000D01*
X165509620Y-119149620D02*
X165600000Y-119240000D01*
X149520000Y-128250000D02*
X150500000Y-129230000D01*
X176185000Y-115120000D02*
X178725000Y-115120000D01*
%TO.N,Net-(J5-Pin_1)*%
D30*
X137000000Y-123000000D02*
X137000000Y-120540000D01*
X137000000Y-120540000D02*
X136500000Y-120040000D01*
%TO.N,Motor 2*%
X165807500Y-129500000D02*
X165607500Y-129300000D01*
X167000000Y-129500000D02*
X165807500Y-129500000D01*
X158050000Y-117950000D02*
X158000000Y-118000000D01*
X158050000Y-114250000D02*
X158050000Y-117950000D01*
%TO.N,Net-(Q2-G)*%
D32*
X166057500Y-132350000D02*
X166607500Y-131800000D01*
X164482500Y-132350000D02*
X166057500Y-132350000D01*
X163607500Y-129300000D02*
X163300000Y-129300000D01*
X165807500Y-131000000D02*
X166607500Y-131800000D01*
X163200000Y-129200000D02*
X162800000Y-129200000D01*
X162600000Y-131000000D02*
X165807500Y-131000000D01*
X163300000Y-129300000D02*
X163200000Y-129200000D01*
X162800000Y-129200000D02*
X162600000Y-129400000D01*
X162600000Y-129400000D02*
X162600000Y-131000000D01*
%TO.N,+4.8V*%
D31*
X138250000Y-128250000D02*
X142000000Y-132000000D01*
X147000000Y-132000000D02*
X148500000Y-130500000D01*
X170500000Y-148000000D02*
X172500000Y-148000000D01*
X145690841Y-147809159D02*
X145500000Y-148000000D01*
X142500000Y-148000000D02*
X141000000Y-146500000D01*
X145500000Y-148000000D02*
X142500000Y-148000000D01*
X156107500Y-150000000D02*
X156107500Y-148107500D01*
X148607500Y-147892500D02*
X148500000Y-148000000D01*
X136700000Y-128250000D02*
X138250000Y-128250000D01*
X156750000Y-148000000D02*
X162500000Y-148000000D01*
X173607500Y-146892500D02*
X173607500Y-145837500D01*
X161040000Y-146040000D02*
X161040000Y-143500000D01*
X155500000Y-148000000D02*
X156000000Y-148000000D01*
X155500000Y-148000000D02*
X158500000Y-145000000D01*
X163500000Y-148000000D02*
X164500000Y-148000000D01*
X170500000Y-148000000D02*
X170607500Y-147892500D01*
X162500000Y-148000000D02*
X162500000Y-147500000D01*
X137000000Y-130500000D02*
X141000000Y-134500000D01*
X136700000Y-130500000D02*
X137000000Y-130500000D01*
X141000000Y-134500000D02*
X142300000Y-135800000D01*
X164500000Y-148000000D02*
X170500000Y-148000000D01*
X158500000Y-145000000D02*
X158500000Y-143500000D01*
X136700000Y-132750000D02*
X137200000Y-133250000D01*
X163000000Y-148000000D02*
X163500000Y-148000000D01*
X148607500Y-145800000D02*
X148607500Y-147892500D01*
X148500000Y-148000000D02*
X155000000Y-148000000D01*
X164107500Y-150000000D02*
X164107500Y-148392500D01*
X156107500Y-148107500D02*
X156000000Y-148000000D01*
X156000000Y-148000000D02*
X156750000Y-148000000D01*
X170607500Y-147892500D02*
X170607500Y-145300000D01*
X162500000Y-148000000D02*
X163000000Y-148000000D01*
X145500000Y-148000000D02*
X148500000Y-148000000D01*
X145690841Y-146490451D02*
X145690841Y-147809159D01*
X142000000Y-132000000D02*
X147000000Y-132000000D01*
X148500000Y-130500000D02*
X150500000Y-130500000D01*
X136700000Y-130500000D02*
X136700000Y-132750000D01*
X162500000Y-147500000D02*
X161040000Y-146040000D01*
X136700000Y-128250000D02*
X136700000Y-130500000D01*
X172500000Y-148000000D02*
X173607500Y-146892500D01*
X142300000Y-135800000D02*
X143500000Y-135800000D01*
X141000000Y-134500000D02*
X141000000Y-146500000D01*
X155000000Y-148000000D02*
X155500000Y-148000000D01*
X164107500Y-148392500D02*
X164500000Y-148000000D01*
%TO.N,Net-(D1-A)*%
D32*
X164482500Y-134250000D02*
X164482500Y-137517500D01*
X173607500Y-139007500D02*
X173607500Y-143762500D01*
X170607500Y-138200000D02*
X172800000Y-138200000D01*
X170607500Y-138200000D02*
X170607500Y-141300000D01*
X170607500Y-137007500D02*
X170607500Y-138200000D01*
X164482500Y-134250000D02*
X167850000Y-134250000D01*
X164482500Y-137517500D02*
X161040000Y-140960000D01*
X172800000Y-138200000D02*
X173607500Y-139007500D01*
X167850000Y-134250000D02*
X170607500Y-137007500D01*
%TO.N,Motor 1*%
D30*
X158850000Y-114250000D02*
X158850000Y-117750000D01*
X158850000Y-117750000D02*
X158600000Y-118000000D01*
D32*
X164900000Y-127300000D02*
X165000000Y-127400000D01*
D30*
X166000000Y-127500000D02*
X164807500Y-127500000D01*
D32*
X164607500Y-127300000D02*
X164900000Y-127300000D01*
D30*
X158600000Y-118000000D02*
X158800003Y-118000000D01*
X164807500Y-127500000D02*
X164607500Y-127300000D01*
%TO.N,LED Red*%
D32*
X154850000Y-108900000D02*
X154850000Y-114250000D01*
X162250000Y-101500000D02*
X154850000Y-108900000D01*
%TO.N,LED Green 1*%
X154050000Y-104450000D02*
X154050000Y-114250000D01*
X157000000Y-101500000D02*
X154050000Y-104450000D01*
%TO.N,LED Green 2*%
X151250000Y-112250000D02*
X153250000Y-114250000D01*
X151250000Y-101500000D02*
X151250000Y-112250000D01*
%TO.N,ADC Sensor 3*%
X146250000Y-101000000D02*
X141540000Y-101000000D01*
X150000000Y-115262499D02*
X151150001Y-116412500D01*
X141540000Y-101000000D02*
X139500000Y-103040000D01*
X146250000Y-101000000D02*
X146250000Y-106850000D01*
X146400000Y-107000000D02*
X150000000Y-107000000D01*
X150000000Y-107000000D02*
X150000000Y-115262499D01*
X146250000Y-106850000D02*
X146400000Y-107000000D01*
X151150001Y-116412500D02*
X151887500Y-116412500D01*
%TO.N,ADC Sensor 2*%
X146400000Y-110800000D02*
X146400000Y-112705740D01*
D30*
X146400000Y-110800000D02*
X146100000Y-110500000D01*
D32*
X150906760Y-117212500D02*
X151887500Y-117212500D01*
X146400000Y-112705740D02*
X150906760Y-117212500D01*
D30*
X146100000Y-110500000D02*
X140540000Y-110500000D01*
X140540000Y-110500000D02*
X139500000Y-111540000D01*
%TO.N,ADC Sensor 1*%
D32*
X145587500Y-118012500D02*
X151887500Y-118012500D01*
X146250000Y-120000000D02*
X145400000Y-120000000D01*
X145400000Y-120000000D02*
X145360000Y-120040000D01*
X145400000Y-120000000D02*
X145400000Y-118200000D01*
X145400000Y-118200000D02*
X145587500Y-118012500D01*
X145360000Y-120040000D02*
X139040000Y-120040000D01*
%TO.N,GND*%
D31*
X170248489Y-131800000D02*
X170250214Y-131801725D01*
X163600000Y-115000000D02*
X164000000Y-115000000D01*
X148250000Y-101000000D02*
X148250000Y-100000000D01*
X134750000Y-126250000D02*
X134000000Y-125500000D01*
D30*
X153370000Y-133500000D02*
X153000000Y-133500000D01*
X154850000Y-122575000D02*
X154850000Y-123391993D01*
X153720000Y-133150000D02*
X153370000Y-133500000D01*
D31*
X161514686Y-117505513D02*
X161545456Y-117536283D01*
D30*
X146100000Y-108500000D02*
X146400000Y-108800000D01*
D31*
X161505514Y-117505513D02*
X161514686Y-117505513D01*
X168607500Y-131800000D02*
X170248489Y-131800000D01*
X134750000Y-127250000D02*
X134750000Y-126250000D01*
D30*
X154487500Y-126987500D02*
X154500000Y-127000000D01*
D31*
X164000000Y-115000000D02*
X164500000Y-114500000D01*
X161607500Y-132300000D02*
X162607500Y-133300000D01*
X159607500Y-132300000D02*
X161607500Y-132300000D01*
D30*
X154850000Y-123391993D02*
X154972881Y-123514874D01*
D31*
X146400000Y-107750000D02*
X146287619Y-107637619D01*
X148250000Y-100000000D02*
X147500000Y-99250000D01*
X160212500Y-118012500D02*
X160998527Y-118012500D01*
D30*
X149500000Y-120000000D02*
X148600000Y-120000000D01*
D31*
X146400000Y-108800000D02*
X146400000Y-107750000D01*
D30*
X153712500Y-126987500D02*
X154487500Y-126987500D01*
D31*
X160998527Y-118012500D02*
X161505514Y-117505513D01*
X146287619Y-107637619D02*
X146287619Y-107640213D01*
%TO.N,RESET*%
D32*
X165600000Y-121400000D02*
X165200000Y-121800000D01*
X160212500Y-120412500D02*
X165600000Y-120412500D01*
X165600000Y-120412500D02*
X166427500Y-120412500D01*
X165600000Y-120412500D02*
X165600000Y-121400000D01*
X168360000Y-120000000D02*
X167600000Y-119240000D01*
X166427500Y-120412500D02*
X167600000Y-119240000D01*
X165200000Y-121800000D02*
X165200000Y-122600000D01*
D30*
X177335000Y-122915000D02*
X174420000Y-120000000D01*
X174420000Y-120000000D02*
X168360000Y-120000000D01*
%TO.N,UPDI Data*%
D32*
X162987500Y-119612500D02*
X160212500Y-119612500D01*
X176800000Y-117300000D02*
X178500000Y-119000000D01*
X162987500Y-119612500D02*
X165300000Y-117300000D01*
X165300000Y-117300000D02*
X176800000Y-117300000D01*
%TO.N,USART TX*%
D30*
X160212500Y-117212500D02*
X160949999Y-117212500D01*
X160949999Y-117212500D02*
X162000000Y-116162499D01*
X162000000Y-114500000D02*
X169000000Y-107500000D01*
X162000000Y-116162499D02*
X162000000Y-114500000D01*
X169000000Y-107500000D02*
X178725000Y-107500000D01*
%TO.N,USART RX*%
X161500000Y-115685028D02*
X161500000Y-114000000D01*
X160212500Y-116412500D02*
X160772528Y-116412500D01*
X161500000Y-114000000D02*
X170540000Y-104960000D01*
X170540000Y-104960000D02*
X178725000Y-104960000D01*
X160772528Y-116412500D02*
X161500000Y-115685028D01*
%TO.N,Net-(D8-A)*%
D32*
X162250000Y-99500000D02*
X162250000Y-98750000D01*
X162250000Y-98750000D02*
X164500000Y-96500000D01*
%TO.N,Net-(J4-Pin_1)*%
D30*
X137000000Y-111580000D02*
X136960000Y-111540000D01*
X137000000Y-114500000D02*
X137000000Y-111580000D01*
%TO.N,Net-(D10-A)*%
D32*
X151500000Y-98500000D02*
X151500000Y-96540000D01*
X150800000Y-99200000D02*
X151500000Y-98500000D01*
X151250000Y-99500000D02*
X151100000Y-99500000D01*
X151100000Y-99500000D02*
X150800000Y-99200000D01*
%TO.N,Net-(D11-A)*%
D31*
X135200000Y-133250000D02*
X135200000Y-133700000D01*
X135200000Y-133700000D02*
X135500000Y-134000000D01*
X135500000Y-134000000D02*
X135500000Y-134785000D01*
X135500000Y-134785000D02*
X137200000Y-136485000D01*
%TO.N,Net-(Q3-G)*%
D32*
X155595000Y-132200000D02*
X157707500Y-132200000D01*
X157107500Y-132800000D02*
X157607500Y-132300000D01*
X157707500Y-132200000D02*
X162607500Y-127300000D01*
X157507500Y-132200000D02*
X157607500Y-132300000D01*
X155595000Y-132200000D02*
X157507500Y-132200000D01*
%TO.N,Net-(D2-A)*%
X155107500Y-135400000D02*
X155000000Y-135400000D01*
X148607500Y-139600000D02*
X148607500Y-141800000D01*
X155000000Y-135400000D02*
X149800000Y-135400000D01*
X158500000Y-137005000D02*
X158500000Y-140960000D01*
X149800000Y-135400000D02*
X148607500Y-136592500D01*
X148607500Y-139600000D02*
X146600000Y-139600000D01*
X146600000Y-139600000D02*
X145690841Y-140509159D01*
X148607500Y-136592500D02*
X148607500Y-139600000D01*
X155107500Y-134587500D02*
X155107500Y-135400000D01*
X155595000Y-134100000D02*
X155107500Y-134587500D01*
X155595000Y-134100000D02*
X158500000Y-137005000D01*
X145690841Y-140509159D02*
X145690841Y-144415451D01*
%TO.N,Net-(D9-A)*%
X157000000Y-99500000D02*
X157000000Y-97500000D01*
X157000000Y-97500000D02*
X158000000Y-96500000D01*
%TO.N,DTR*%
D30*
X181265000Y-107500000D02*
X179875000Y-108890000D01*
X166000000Y-125875000D02*
X165200000Y-125075000D01*
D32*
X165200000Y-125075000D02*
X165475000Y-125075000D01*
D30*
X173897500Y-108890000D02*
X167500000Y-115287500D01*
X167500000Y-115287500D02*
X167500000Y-115087500D01*
X166375000Y-125875000D02*
X166000000Y-125875000D01*
X179875000Y-108890000D02*
X173897500Y-108890000D01*
%TO.N,Net-(J3-Pin_1)*%
X137500000Y-103580000D02*
X136960000Y-103040000D01*
X137500000Y-106000000D02*
X137500000Y-103580000D01*
%TD*%
M02*
