%TF.GenerationSoftware,KiCad,Pcbnew,10.0.5*%
%TF.CreationDate,2026-08-21T22:36:25+12:00*%
%TF.ProjectId,PCB Test,50434220-5465-4737-942e-6b696361645f,rev?*%
%TF.SameCoordinates,Original*%
%TF.FileFunction,Soldermask,Top*%
%TF.FilePolarity,Negative*%
%FSLAX46Y46*%
G04 Gerber Fmt 4.6, Leading zero omitted, Abs format (unit mm)*
G04 Created by KiCad (PCBNEW 10.0.5) date 2026-08-21 22:36:25*
%MOMM*%
%LPD*%
G01*
G04 APERTURE LIST*
G04 Aperture macros list*
%AMRoundRect*
0 Rectangle with rounded corners*
0 $1 Rounding radius*
0 $2 $3 $4 $5 $6 $7 $8 $9 X,Y pos of 4 corners*
0 Add a 4 corners polygon primitive as box body*
4,1,4,$2,$3,$4,$5,$6,$7,$8,$9,$2,$3,0*
0 Add four circle primitives for the rounded corners*
1,1,$1+$1,$2,$3*
1,1,$1+$1,$4,$5*
1,1,$1+$1,$6,$7*
1,1,$1+$1,$8,$9*
0 Add four rect primitives between the rounded corners*
20,1,$1+$1,$2,$3,$4,$5,0*
20,1,$1+$1,$4,$5,$6,$7,0*
20,1,$1+$1,$6,$7,$8,$9,0*
20,1,$1+$1,$8,$9,$2,$3,0*%
G04 Aperture macros list end*
%ADD10RoundRect,0.250000X0.350000X0.450000X-0.350000X0.450000X-0.350000X-0.450000X0.350000X-0.450000X0*%
%ADD11C,1.712000*%
%ADD12RoundRect,0.250000X0.650000X-1.000000X0.650000X1.000000X-0.650000X1.000000X-0.650000X-1.000000X0*%
%ADD13RoundRect,0.137500X-0.137500X0.600000X-0.137500X-0.600000X0.137500X-0.600000X0.137500X0.600000X0*%
%ADD14RoundRect,0.137500X-0.600000X0.137500X-0.600000X-0.137500X0.600000X-0.137500X0.600000X0.137500X0*%
%ADD15RoundRect,0.250000X-0.475000X0.337500X-0.475000X-0.337500X0.475000X-0.337500X0.475000X0.337500X0*%
%ADD16R,1.800000X1.800000*%
%ADD17C,1.800000*%
%ADD18R,1.700000X1.700000*%
%ADD19C,1.700000*%
%ADD20R,1.950000X0.500000*%
%ADD21RoundRect,0.250000X-0.350000X-0.450000X0.350000X-0.450000X0.350000X0.450000X-0.350000X0.450000X0*%
%ADD22C,1.600000*%
%ADD23RoundRect,0.250000X-0.450000X0.350000X-0.450000X-0.350000X0.450000X-0.350000X0.450000X0.350000X0*%
%ADD24C,2.200000*%
%ADD25RoundRect,0.150000X0.587500X0.150000X-0.587500X0.150000X-0.587500X-0.150000X0.587500X-0.150000X0*%
%ADD26RoundRect,0.250000X0.450000X-0.350000X0.450000X0.350000X-0.450000X0.350000X-0.450000X-0.350000X0*%
%ADD27RoundRect,0.250000X0.475000X-0.337500X0.475000X0.337500X-0.475000X0.337500X-0.475000X-0.337500X0*%
%ADD28R,1.500000X1.050000*%
%ADD29O,1.500000X1.050000*%
G04 APERTURE END LIST*
D10*
%TO.C,R23*%
X177125000Y-92525000D03*
X175125000Y-92525000D03*
%TD*%
D11*
%TO.C,S4*%
X181750000Y-129250000D03*
X177250000Y-129250000D03*
X181750000Y-135750000D03*
X177250000Y-135750000D03*
%TD*%
%TO.C,S2*%
X170750000Y-94750000D03*
X170750000Y-99250000D03*
X177250000Y-94750000D03*
X177250000Y-99250000D03*
%TD*%
D10*
%TO.C,R16*%
X139000000Y-123000000D03*
X137000000Y-123000000D03*
%TD*%
%TO.C,R10*%
X165607500Y-129300000D03*
X163607500Y-129300000D03*
%TD*%
D12*
%TO.C,D1*%
X170607500Y-145300000D03*
X170607500Y-141300000D03*
%TD*%
D13*
%TO.C,U1*%
X158850000Y-114250000D03*
X158050000Y-114250000D03*
X157250000Y-114250000D03*
X156450000Y-114250000D03*
X155650000Y-114250000D03*
X154850000Y-114250000D03*
X154050000Y-114250000D03*
X153250000Y-114250000D03*
D14*
X151887500Y-115612500D03*
X151887500Y-116412500D03*
X151887500Y-117212500D03*
X151887500Y-118012500D03*
X151887500Y-118812500D03*
X151887500Y-119612500D03*
X151887500Y-120412500D03*
X151887500Y-121212500D03*
D13*
X153250000Y-122575000D03*
X154050000Y-122575000D03*
X154850000Y-122575000D03*
X155650000Y-122575000D03*
X156450000Y-122575000D03*
X157250000Y-122575000D03*
X158050000Y-122575000D03*
X158850000Y-122575000D03*
D14*
X160212500Y-121212500D03*
X160212500Y-120412500D03*
X160212500Y-119612500D03*
X160212500Y-118812500D03*
X160212500Y-118012500D03*
X160212500Y-117212500D03*
X160212500Y-116412500D03*
X160212500Y-115612500D03*
%TD*%
D15*
%TO.C,C8*%
X163600000Y-115000000D03*
X163600000Y-117075000D03*
%TD*%
D16*
%TO.C,D8*%
X164500000Y-93960000D03*
D17*
X164500000Y-96500000D03*
%TD*%
D18*
%TO.C,J3*%
X136960000Y-103040000D03*
D19*
X136960000Y-100500000D03*
X139500000Y-103040000D03*
X139500000Y-100500000D03*
%TD*%
D10*
%TO.C,R1*%
X167600000Y-119240000D03*
X165600000Y-119240000D03*
%TD*%
%TO.C,R14*%
X139000000Y-114500000D03*
X137000000Y-114500000D03*
%TD*%
D16*
%TO.C,D10*%
X151500000Y-94000000D03*
D17*
X151500000Y-96540000D03*
%TD*%
D20*
%TO.C,BT1*%
X136700000Y-128250000D03*
X134750000Y-127250000D03*
%TD*%
D21*
%TO.C,R17*%
X146600000Y-120000000D03*
X148600000Y-120000000D03*
%TD*%
D16*
%TO.C,D11*%
X137200000Y-139025000D03*
D17*
X137200000Y-136485000D03*
%TD*%
D18*
%TO.C,J6*%
X178500000Y-119000000D03*
D19*
X181040000Y-119000000D03*
X178500000Y-121540000D03*
X181040000Y-121540000D03*
X178500000Y-124080000D03*
X181040000Y-124080000D03*
%TD*%
D22*
%TO.C,C4*%
X143500000Y-135800000D03*
X146000000Y-135800000D03*
%TD*%
D18*
%TO.C,J1*%
X161040000Y-143500000D03*
D19*
X158500000Y-143500000D03*
X161040000Y-140960000D03*
X158500000Y-140960000D03*
%TD*%
D23*
%TO.C,R7*%
X162250000Y-99500000D03*
X162250000Y-101500000D03*
%TD*%
D24*
%TO.C,H2*%
X181400000Y-91400000D03*
%TD*%
D21*
%TO.C,R13*%
X157607500Y-132300000D03*
X159607500Y-132300000D03*
%TD*%
D22*
%TO.C,C7*%
X145500000Y-128250000D03*
X143000000Y-128250000D03*
%TD*%
D18*
%TO.C,J4*%
X136960000Y-111540000D03*
D19*
X136960000Y-109000000D03*
X139500000Y-111540000D03*
X139500000Y-109000000D03*
%TD*%
D22*
%TO.C,C2*%
X156107500Y-152500000D03*
X156107500Y-150000000D03*
%TD*%
D25*
%TO.C,Q2*%
X164482500Y-134250000D03*
X164482500Y-132350000D03*
X162607500Y-133300000D03*
%TD*%
D15*
%TO.C,C9*%
X153712500Y-124912500D03*
X153712500Y-126987500D03*
%TD*%
D23*
%TO.C,R19*%
X151250000Y-99500000D03*
X151250000Y-101500000D03*
%TD*%
D26*
%TO.C,R15*%
X146400000Y-110800000D03*
X146400000Y-108800000D03*
%TD*%
D27*
%TO.C,C5*%
X173607500Y-145837500D03*
X173607500Y-143762500D03*
%TD*%
D12*
%TO.C,D2*%
X148607500Y-145800000D03*
X148607500Y-141800000D03*
%TD*%
D23*
%TO.C,R18*%
X157000000Y-99500000D03*
X157000000Y-101500000D03*
%TD*%
D18*
%TO.C,J2*%
X178725000Y-104960000D03*
D19*
X181265000Y-104960000D03*
X178725000Y-107500000D03*
X181265000Y-107500000D03*
X178725000Y-110040000D03*
X181265000Y-110040000D03*
X178725000Y-112580000D03*
X181265000Y-112580000D03*
X178725000Y-115120000D03*
X181265000Y-115120000D03*
%TD*%
D22*
%TO.C,C1*%
X164107500Y-152500000D03*
X164107500Y-150000000D03*
%TD*%
D24*
%TO.C,H1*%
X135600000Y-91600000D03*
%TD*%
%TO.C,H3*%
X181600000Y-153000000D03*
%TD*%
D27*
%TO.C,C3*%
X165200000Y-125075000D03*
X165200000Y-123000000D03*
%TD*%
D21*
%TO.C,R11*%
X166607500Y-131800000D03*
X168607500Y-131800000D03*
%TD*%
%TO.C,R20*%
X135200000Y-133250000D03*
X137200000Y-133250000D03*
%TD*%
%TO.C,R9*%
X146250000Y-101000000D03*
X148250000Y-101000000D03*
%TD*%
D24*
%TO.C,H4*%
X135600000Y-153000000D03*
%TD*%
D10*
%TO.C,R8*%
X139500000Y-106000000D03*
X137500000Y-106000000D03*
%TD*%
D27*
%TO.C,C6*%
X145690841Y-146490451D03*
X145690841Y-144415451D03*
%TD*%
D10*
%TO.C,R12*%
X164607500Y-127300000D03*
X162607500Y-127300000D03*
%TD*%
D16*
%TO.C,D9*%
X158000000Y-93960000D03*
D17*
X158000000Y-96500000D03*
%TD*%
D28*
%TO.C,U5*%
X150500000Y-131770000D03*
D29*
X150500000Y-130500000D03*
X150500000Y-129230000D03*
%TD*%
D25*
%TO.C,Q3*%
X155595000Y-134100000D03*
X155595000Y-132200000D03*
X153720000Y-133150000D03*
%TD*%
D18*
%TO.C,J5*%
X136500000Y-120040000D03*
D19*
X136500000Y-117500000D03*
X139040000Y-120040000D03*
X139040000Y-117500000D03*
%TD*%
D21*
%TO.C,R21*%
X170500000Y-92500000D03*
X172500000Y-92500000D03*
%TD*%
M02*
