M48
; DRILL file KiCad 10.0.5 date 2026-08-21T22:36:49
; FORMAT={-:-/ absolute / metric / decimal}
; #@! TF.CreationDate,2026-08-21T22:36:49+12:00
; #@! TF.GenerationSoftware,Kicad,Pcbnew,10.0.5
; #@! TF.FileFunction,Plated,1,2,PTH
FMAT,2
METRIC
; #@! TA.AperFunction,Plated,PTH,ViaDrill
T1C0.300
; #@! TA.AperFunction,Plated,PTH,ComponentDrill
T2C0.750
; #@! TA.AperFunction,Plated,PTH,ComponentDrill
T3C0.800
; #@! TA.AperFunction,Plated,PTH,ComponentDrill
T4C0.900
; #@! TA.AperFunction,Plated,PTH,ComponentDrill
T5C1.000
%
G90
G05
T1
X134.0Y-125.5
X141.0Y-106.0
X141.0Y-114.5
X141.0Y-122.5
X146.288Y-107.64
X147.5Y-99.25
X149.5Y-120.0
X153.0Y-133.5
X154.5Y-127.0
X154.973Y-123.515
X158.0Y-118.0
X158.8Y-118.0
X161.545Y-117.536
X161.607Y-132.3
X164.5Y-114.5
X165.5Y-116.5
X165.51Y-118.05
X166.0Y-127.5
X166.375Y-125.875
X167.0Y-129.5
X167.5Y-115.087
X170.25Y-131.802
X173.5Y-91.5
X174.5Y-91.5
T2
X150.5Y-129.23
X150.5Y-130.5
X150.5Y-131.77
T3
X143.0Y-128.25
X143.5Y-135.8
X145.5Y-128.25
X146.0Y-135.8
X156.107Y-150.0
X156.107Y-152.5
X164.107Y-150.0
X164.107Y-152.5
T4
X137.2Y-136.485
X137.2Y-139.025
X151.5Y-94.0
X151.5Y-96.54
X158.0Y-93.96
X158.0Y-96.5
X164.5Y-93.96
X164.5Y-96.5
T5
X136.5Y-117.5
X136.5Y-120.04
X136.96Y-100.5
X136.96Y-103.04
X136.96Y-109.0
X136.96Y-111.54
X139.04Y-117.5
X139.04Y-120.04
X139.5Y-100.5
X139.5Y-103.04
X139.5Y-109.0
X139.5Y-111.54
X158.5Y-140.96
X158.5Y-143.5
X161.04Y-140.96
X161.04Y-143.5
X170.75Y-94.75
X170.75Y-99.25
X177.25Y-94.75
X177.25Y-99.25
X177.25Y-129.25
X177.25Y-135.75
X178.5Y-119.0
X178.5Y-121.54
X178.5Y-124.08
X178.725Y-104.96
X178.725Y-107.5
X178.725Y-110.04
X178.725Y-112.58
X178.725Y-115.12
X181.04Y-119.0
X181.04Y-121.54
X181.04Y-124.08
X181.265Y-104.96
X181.265Y-107.5
X181.265Y-110.04
X181.265Y-112.58
X181.265Y-115.12
X181.75Y-129.25
X181.75Y-135.75
M30
